<svg width="512" height="512" viewBox="0 0 512 512" fill="none" xmlns="http://www.w3.org/2000/svg" xmlns:xlink="http://www.w3.org/1999/xlink" class=""><rect id="r9" width="512" height="512" x="0" y="0" rx="0" fill="url(#ra)" stroke="#FFFFFF" stroke-width="0" stroke-opacity="100%" paint-order="stroke"></rect><clipPath id="clip"><use xlink:href="#r9"></use></clipPath><defs><linearGradient id="ra" gradientUnits="userSpaceOnUse" gradientTransform="rotate(45)" style="transform-origin: center center;"><stop stop-color="#0EC9F1"></stop><stop offset="1" stop-color="#2B95DD"></stop></linearGradient><radialGradient id="rb" cx="0" cy="0" r="1" gradientUnits="userSpaceOnUse" gradientTransform="translate(256) rotate(90) scale(512)"><stop stop-color="white"></stop><stop offset="1" stop-color="white" stop-opacity="0"></stop></radialGradient></defs><svg xmlns="http://www.w3.org/2000/svg" width="352" height="352" viewBox="0 0 24 24" x="80" y="80" alignment-baseline="middle" style="color: rgb(255, 255, 255);"><path fill="currentColor" d="M21 6.25A3.25 3.25 0 0 0 17.75 3H6.25A3.25 3.25 0 0 0 3 6.25v4.507a5.5 5.5 0 0 1 1.5-.882V6.25c0-.966.784-1.75 1.75-1.75h11.5c.966 0 1.75.784 1.75 1.75v11.5q-.002.315-.104.595l-5.822-5.702l-.128-.116a2.25 2.25 0 0 0-2.243-.38c.259.425.461.889.598 1.38a.75.75 0 0 1 .724.188L18.33 19.4a1.8 1.8 0 0 1-.581.099h-4.775l.512.513c.278.277.443.626.495.987h3.768A3.25 3.25 0 0 0 21 17.75zm-3.496 2.502a2.252 2.252 0 1 0-4.504 0a2.252 2.252 0 0 0 4.504 0m-3.004 0a.752.752 0 1 1 1.504 0a.752.752 0 0 1-1.504 0M9.95 17.89a4.5 4.5 0 1 0-1.145.976l2.915 2.915a.75.75 0 1 0 1.06-1.06zM6.5 18a3 3 0 1 1 0-6a3 3 0 0 1 0 6"></path></svg></svg>